# xmcd CD database file generated by OrangeCD 5.2
#
# Track frame offsets:
#	182
#	12822
#	25532
#	36282
#	48702
#	59597
#	72682
#	85212
#	100450
#	117045
#	130677
#	145005
#	163705
#	177352
#	188692
#
# Disc length: 2722 seconds
#
# Revision: 0
# Processed by: cddbd v1.5.1PL0 Copyright (c) Steve Scherf et al.
# Submitted via: OrangeCD 5.2
#
DISCID=cd0aa00f
DTITLE=Donnie Elbert - R&B Maverick Disc 1
DYEAR=1997
DGENRE=R&B Male 
TTITLE0=Get Ready
TTITLE1=Time Hangs On My Mind
TTITLE2=Along Came Pride
TTITLE3=Baby Please Come Home
TTITLE4=Without You
TTITLE5=Can't Get Over Losing You
TTITLE6=If I Can't Have You
TTITLE7=Will You Ever Be Mine
TTITLE8=A Little Piece Of Leather
TTITLE9=One Thousand, Nine Hundred And Seventy Years
TTITLE10=Where Did Our Love Go ?
TTITLE11=What Can I Do
TTITLE12=(I Got To) Get Myself Togrther 
TTITLE13=Sweet Baby
TTITLE14=That's If You Love Me
EXTD=
EXTT0=
EXTT1=
EXTT2=
EXTT3=
EXTT4=
EXTT5=
EXTT6=
EXTT7=
EXTT8=
EXTT9=
EXTT10=
EXTT11=
EXTT12=
EXTT13=
EXTT14=
PLAYORDER=
